<svg xmlns="http://www.w3.org/2000/svg" viewBox="0 0 100 100">
  <!-- Background with gradient -->
  <rect x="0" y="0" width="100" height="100" rx="20" fill="url(#backgroundGradient)" />
  
  <!-- Stylized magnifying glass with gradient stroke -->
  <path d="M50,15 A30,30 0 0 1 50,75 A30,30 0 0 1 50,15 Z" fill="none" stroke="url(#strokeGradient)" stroke-width="8" />
  <line x1="72" y1="67" x2="90" y2="85" stroke="url(#strokeGradient)" stroke-width="8" stroke-linecap="round" />
  
  <!-- Enlarged, colored, scattered ingredient dots -->
  <circle cx="50" cy="45" r="4.5" fill="#FF5252" />
  <circle cx="62" cy="35" r="4.5" fill="#FFEB3B" />
  <circle cx="40" cy="55" r="4.5" fill="#4CAF50" />
  <circle cx="45" cy="30" r="4.5" fill="#2196F3" />
  <circle cx="58" cy="52" r="4.5" fill="#FF9800" />
  <circle cx="35" cy="40" r="4.5" fill="#E91E63" />
  <circle cx="55" cy="60" r="4.5" fill="#9C27B0" />
  
  <!-- Subtle glow effect -->
  <circle cx="50" cy="45" r="32" fill="url(#glow)" />
  
  <defs>
    <!-- Background gradient -->
    <linearGradient id="backgroundGradient" x1="0%" y1="0%" x2="100%" y2="100%">
      <stop offset="0%" style="stop-color:#7B1FA2" />
      <stop offset="100%" style="stop-color:#6200EA" />
    </linearGradient>
    
    <!-- Stroke gradient for magnifying glass -->
    <linearGradient id="strokeGradient" x1="0%" y1="0%" x2="100%" y2="100%">
      <stop offset="0%" style="stop-color:#FFFFFF" />
      <stop offset="100%" style="stop-color:#E0E0E0" />
    </linearGradient>
    
    <!-- Glow effect -->
    <radialGradient id="glow" cx="50%" cy="50%" r="50%" fx="50%" fy="50%">
      <stop offset="80%" style="stop-color:rgb(98,0,234);stop-opacity:0" />
      <stop offset="100%" style="stop-color:rgb(255,255,255);stop-opacity:0.3" />
    </radialGradient>
  </defs>
</svg>